<svg xmlns="http://www.w3.org/2000/svg" xmlns:xlink="http://www.w3.org/1999/xlink" fill="none" version="1.1" width="30" height="30" viewBox="0 0 30 30"><defs><clipPath id="master_svg0_151_0706"><rect x="0" y="0" width="30" height="30" rx="0"/></clipPath></defs><g clip-path="url(#master_svg0_151_0706)"><g><path d="M5.25,15Q5.25,10.96141,8.10571,8.10571Q10.96141,5.25,15,5.25Q19.038600000000002,5.25,21.8943,8.10571Q24.75,10.96142,24.75,15Q24.75,19.038600000000002,21.8943,21.8943Q19.038600000000002,24.75,15,24.75Q10.96141,24.75,8.10571,21.8943Q5.25,19.038600000000002,5.25,15ZM15.3533,9.47217Q15.2746,8.23264,15.8084,7.28751Q16.9373,7.39431,17.9419,7.80514Q17.289099999999998,8.39651,17.3492,9.34558Q17.364800000000002,9.5908,17.6764,9.93647Q18.5,10.85012,18.5,11.875Q18.5,13.26204,17.5503,14.78757Q16.4021,16.6319,14.73391,16.9317Q13.37507,17.1759,11.858640000000001,16.140900000000002Q11.726880000000001,16.0509,11.63262,15.9909Q11.61648,16.131700000000002,11.60309,16.360500000000002Q11.51982,17.7843,10.920919999999999,18.4831Q10.04506,19.5049,8.70516,19.5357Q7.9487000000000005,18.511200000000002,7.5854800000000004,17.3262Q8.89047,17.7787,9.402339999999999,17.1816Q9.56259,16.9946,9.6065,16.2437Q9.7009,14.62989,10.62778,14.10856Q11.615120000000001,13.55315,12.98616,14.48897Q13.82673,15.06271,14.38009,14.96327Q15.17379,14.82061,15.8524,13.73056Q16.5,12.690349999999999,16.5,11.875Q16.5,11.61851,16.1909,11.27558Q15.4129,10.41255,15.3533,9.47217ZM20.4895,17.083Q21.3865,17.415,22.201,17.93Q21.8274,18.8495,21.1997,19.663800000000002Q20.5312,19.231099999999998,19.795299999999997,18.9587Q19.2225,18.7467,19.0046,18.7085Q18.9794,18.8186,18.946199999999997,19.0016Q18.732100000000003,20.181800000000003,18.206699999999998,20.7071Q17.8453,21.0685,17.256999999999998,21.3275Q17.3194,21.6818,17.9416,22.1929L17.9444,22.1952Q16.901,22.6217,15.7217,22.7203Q15.2497,22.0101,15.25,21.2496Q15.2504,20.0103,16.4256,19.5081Q16.6904,19.395,16.7926,19.2928Q16.875799999999998,19.209600000000002,16.9783,18.6446Q17.221899999999998,17.302,17.990299999999998,16.918Q18.8639,16.4814,20.4895,17.083Z" fill-rule="evenodd" fill="#10B981" fill-opacity="1"/></g><g><ellipse cx="15" cy="2.5" rx="1.25" ry="1.25" fill="#10B981" fill-opacity="1"/></g><g><ellipse cx="15" cy="27.5" rx="1.25" ry="1.25" fill="#10B981" fill-opacity="1"/></g><g><ellipse cx="27.5" cy="15" rx="1.25" ry="1.25" fill="#10B981" fill-opacity="1"/></g><g><ellipse cx="23.75" cy="6.25" rx="1.25" ry="1.25" fill="#10B981" fill-opacity="1"/></g><g><ellipse cx="6.25" cy="23.75" rx="1.25" ry="1.25" fill="#10B981" fill-opacity="1"/></g><g><ellipse cx="2.5" cy="15" rx="1.25" ry="1.25" fill="#10B981" fill-opacity="1"/></g><g><ellipse cx="6.25" cy="6.25" rx="1.25" ry="1.25" fill="#10B981" fill-opacity="1"/></g><g><ellipse cx="23.75" cy="23.75" rx="1.25" ry="1.25" fill="#10B981" fill-opacity="1"/></g></g></svg>