<svg xmlns="http://www.w3.org/2000/svg" xmlns:xlink="http://www.w3.org/1999/xlink" fill="none" version="1.1" width="30" height="30" viewBox="0 0 30 30"><defs><clipPath id="master_svg0_213_3715"><rect x="0" y="0" width="30" height="30" rx="0"/></clipPath></defs><g clip-path="url(#master_svg0_213_3715)"><g><path d="M25.12451171875,25.5L24.18701171875,25.5L24.18701171875,21Q27.74951171875,19.6875,24.74951171875,18.375Q24.18701171875,18.1875,23.43701171875,17.8125L23.43701171875,15.5625C24.74951171875,15.1875,25.87451171875,14.0625,23.81201171875,13.3125Q22.49951171875,12.75,21.18701171875,12.5625L21.18701171875,10.3125C22.49951171875,9.9375,22.87451171875,9,21.74951171875,8.4375C20.99951171875,8.0625,19.68701171875,7.875,18.18701171875,7.125Q16.87451171875,6.75,15.74951171875,5.8125L15.74951171875,2.625C15.74951171875,2.25,15.37451171875,1.875,14.99951171875,1.875C14.62451171875,1.875,14.24951171875,2.25,14.24951171875,2.625L14.24951171875,5.8125Q13.12451171875,6.75,11.99951171875,7.125C10.49951171875,7.875,9.18701171875,8.0625,8.43701171875,8.4375C7.31201171875,9,7.68701171875,9.9375,8.99951171875,10.3125L8.99951171875,12.375L6.37451171875,13.125C4.31201271875,13.875,5.43701171875,15,6.74951171875,15.375L6.74951171875,17.8125Q5.99951171875,18,5.43701171875,18.375Q2.43701171875,19.6875,5.99951171875,21L5.99951171875,25.5L4.87451171875,25.5C4.12451171875,25.5,3.56201171875,26.0625,3.56201171875,26.8125C3.56201171875,27.5625,4.12451171875,28.125,4.87451171875,28.125L25.31201171875,28.125C26.06201171875,28.125,26.62451171875,27.5625,26.62451171875,26.8125C26.62451171875,26.0625,25.87451171875,25.5,25.12451171875,25.5ZM13.70951171875,24C13.70951171875,24.4631,13.33076171875,24.8438,12.86576171875,24.8438L11.66576171875,24.8438C11.19989171875,24.8427,10.82220171875,24.4659,10.82013171875,24L10.82013171875,22.4062C10.82013171875,21.9431,11.20076171875,21.5625,11.66389171875,21.5625L12.86388171875,21.5625C13.33076171875,21.5625,13.71141171875,21.9431,13.71141171875,22.4062L13.71141171875,24L13.70951171875,24ZM19.420811718750002,24C19.420811718750002,24.4631,19.040111718749998,24.8438,18.57701171875,24.8438L17.377011718749998,24.8438C16.91111171875,24.8427,16.53341171875,24.4659,16.53141171875,24L16.53141171875,22.4062C16.53141171875,21.9431,16.91201171875,21.5625,17.37511171875,21.5625L18.57511171875,21.5625C19.040111718749998,21.5625,19.420811718750002,21.9431,19.420811718750002,22.4062L19.420811718750002,24Z" fill="#10B981" fill-opacity="1"/></g></g></svg>