<svg xmlns="http://www.w3.org/2000/svg" xmlns:xlink="http://www.w3.org/1999/xlink" fill="none" version="1.1" width="30" height="30" viewBox="0 0 30 30"><defs><clipPath id="master_svg0_151_0738"><rect x="0" y="0" width="30" height="30" rx="0"/></clipPath></defs><g clip-path="url(#master_svg0_151_0738)"><g><path d="M23.4691904296875,12.8954009765625C23.4691904296875,7.7810209765625,18.5434904296875,3.6197509765625,12.4885904296875,3.6197509765625C6.4334704296875,3.6197509765625,1.5076904296875,7.7810509765625,1.5076904296875,12.8954009765625C1.5076904296875,15.1520509765625,2.4761834296875,17.3265509765625,4.2104504296875,18.9898509765625C4.4254604296875,19.324950976562498,4.4538504296875,21.1308509765625,4.2705004296875,22.8541509765625L4.1226104296875,24.2416509765625L5.2899904296875,23.4778509765625C6.6233004296875,22.6048509765625,8.3310904296875,21.6699509765625,8.8011204296875,21.6370509765625C9.9813804296875,21.9915509765625,11.2217304296875,22.1716509765625,12.4884904296875,22.1716509765625C18.5434904296875,22.1716509765625,23.4691904296875,18.0103509765625,23.4691904296875,12.8954009765625ZM7.2270004296875,14.0091509765625C6.5296504296875,14.0124509765625,5.9614704296875,13.4487109765625,5.9588904296875,12.7514109765625C5.9550204296875,12.0540509765625,6.5186704296875,11.4859109765625,7.2166304296875,11.4820109765625C7.9126704296875,11.4788009765625,8.4821604296875,12.0431109765625,8.4847404296875,12.7397809765625C8.4879804296875,13.4383909765625,7.9243004296875,14.0059509765625,7.2270004296875,14.0091509765625ZM12.5214904296875,14.0091509765625C11.8241904296875,14.0124509765625,11.2566304296875,13.4487109765625,11.2533604296875,12.7514109765625C11.2501504296875,12.0540509765625,11.8137904296875,11.4859109765625,12.5110904296875,11.4820109765625C13.2084904296875,11.4788009765625,13.7766904296875,12.0431109765625,13.7791904296875,12.7397809765625C13.7824904296875,13.4383909765625,13.2193904296875,14.0059509765625,12.5214904296875,14.0091509765625ZM17.5465904296875,14.0091509765625C16.8491904296875,14.0124509765625,16.2816904296875,13.4487109765625,16.278390429687498,12.7514109765625C16.2751904296875,12.0540509765625,16.838890429687503,11.4859109765625,17.5361904296875,11.4820109765625C18.2334904296875,11.4788009765625,18.8016904296875,12.0431109765625,18.8042904296875,12.7397809765625C18.8075904296875,13.4383909765625,18.2444904296875,14.0059509765625,17.5465904296875,14.0091509765625Z" fill="#10B981" fill-opacity="1"/></g><g><path d="M28.26252734375,15.142231484375C28.26252734375,12.547941484375,26.96602734375,10.055671484375,24.704887343750002,8.303962484375C24.415677343749998,8.081213084375,24.00111734375,8.132838384375,23.77707734375,8.422111484375C23.714447343750003,8.502847484375,23.67895734375,8.593236484375,23.65892734375,8.686832484375C24.40404734375,10.023381484375,24.83275734375,11.509721484375,24.83275734375,13.082571484375C24.83275734375,18.100001484375,20.59326734375,22.294871484375,14.98308134375,23.249871484375C14.92303214375,23.333871484375003,14.87590394375,23.427471484374998,14.85977488375,23.536571484375C14.80812004375,23.898171484375,15.05863034375,24.233171484375,15.42018534375,24.285471484375C17.27391734375,24.552171484375,19.20832734375,24.412071484375,20.96843734375,23.883271484375C21.43848734375,23.916171484375,23.14690734375,24.851171484375,24.48021734375,25.724071484375L25.64822734375,26.488571484375L25.49972734375,25.100271484375C25.315727343749998,23.377671484375,25.34352734375,21.572371484374997,25.53592734375,21.264371484374998C27.29342734375,19.573471484375,28.26192734375,17.398831484375002,28.26252734375,15.142231484375Z" fill="#1BBA85" fill-opacity="0.699999988079071"/></g></g></svg>